<svg xmlns="http://www.w3.org/2000/svg" width="250" height="150" viewBox="0 0 250 150"><g transform="translate(14.034 19.995)"><path d="M192.562,75.909h0a55.208,55.208,0,0,0-18.112.161l-5.5-19.461h1.205c8.465,0,15.35-4.917,15.35-10.96,0-6.13-6.916-10.987-15.35-10.987h-7.413l-4.16-14.706c-1.479-5.23-7.943-9.024-15.37-9.024H126.693c-1.448,0-2.623.841-2.623,1.878s1.175,1.878,2.623,1.878h16.514c4.941,0,9.244,2.528,10.227,6.012l10.911,38.577H160.07c-7.4,0-13.42,4.31-13.42,9.608V92.776H120.167c-3.558,0-6.454-2.073-6.454-4.621v-11.1c5.52-1.362,9.124-4.987,9.124-9.121,0-5.322-6.065-9.655-13.523-9.655H88.492c-1.252-12.553-15.257-22.6-32.78-23.52V29.445c0-1.037-1.175-1.878-2.623-1.878s-2.623.841-2.623,1.878v5.312c-18.135.953-32.515,11.648-32.914,24.836C9.2,62.131,3.329,68.061,3.329,74.954v32.577c0,1.037,1.175,1.878,2.623,1.878H26.5a12.666,12.666,0,0,0-.134,1.672c0,9.843,11.187,17.852,24.935,17.852s24.911-8.009,24.911-17.852a12.665,12.665,0,0,0-.134-1.672c-.351,0,42.354-.01,83.077,0-1.413,10.656,10.374,19.529,24.8,19.529,13.734,0,24.911-8.009,24.911-17.852a12.649,12.649,0,0,0-.134-1.677H217.8a2.589,2.589,0,0,0,2.558-1.46,19.667,19.667,0,0,0,.973-5.98C221.329,89.468,209.5,78.755,192.562,75.909ZM170.15,38.418c5.556,0,10.1,3.187,10.1,7.232,0,3.973-4.532,7.2-10.1,7.2h-1.574L164.5,38.418ZM205.467,84.88H162.453C174.615,76.973,193.3,77.01,205.467,84.88Zm-45.4-21.847h5.338L169.442,77.3c-7.687,2.324-13.765,6.394-17.548,10.929V68.886C151.894,65.658,155.562,63.033,160.07,63.033Zm-39.9,33.5H147.4a18.251,18.251,0,0,0-.411,9.109H99.248V77.616h9.22v10.54C108.468,92.774,113.717,96.532,120.167,96.532Zm-2.575-28.6c0,3.2-3.635,5.929-8.278,5.929H57.724c-4.566,0-8.281-2.66-8.281-5.929s3.752-5.9,8.281-5.9h51.591C113.881,62.033,117.593,64.678,117.593,67.932ZM47.035,73.861H8.728c.826-6.935,9.067-11.828,17.9-11.828H44.781a18.062,18.062,0,0,1,2.11.122c-.084.08-.143.171-.223.252A7.886,7.886,0,0,0,44.2,67.932,8.558,8.558,0,0,0,47.035,73.861ZM22.861,58.277c1.3-11.1,14.359-19.859,30.228-19.859s28.948,8.8,30.194,19.859ZM8.574,77.616H94v28.025c-45.408.027-21.837-.025-85.429.012V77.616Zm49.959,33.465c0,2.863-3.244,5.193-7.229,5.193s-7.253-2.33-7.253-5.193a3.751,3.751,0,0,1,.4-1.672H58.138A3.75,3.75,0,0,1,58.533,111.081Zm12.437,0c0,7.772-8.821,14.1-19.666,14.1s-19.69-6.325-19.69-14.1a9.881,9.881,0,0,1,.143-1.672h7.3a6.412,6.412,0,0,0-.251,1.672c0,4.934,5.607,8.948,12.5,8.948s12.474-4.014,12.474-8.948a6.412,6.412,0,0,0-.251-1.672h7.3A9.9,9.9,0,0,1,70.97,111.081Zm112.99,5.193c-4,0-7.253-2.33-7.253-5.193a3.783,3.783,0,0,1,.394-1.677h13.692C192.4,112.7,188.97,116.274,183.96,116.274Zm0,8.9c-10.856,0-19.69-6.325-19.69-14.1a9.955,9.955,0,0,1,.143-1.677h7.3a6.443,6.443,0,0,0-.251,1.677c0,4.934,5.607,8.948,12.5,8.948s12.471-4.014,12.471-8.948a6.46,6.46,0,0,0-.251-1.677h7.3C204.9,117.723,195.782,125.178,183.96,125.178Zm31.686-19.529c-18.341-.006-40.579-.01-63.4-.007-1.339-5.96.628-12.058,5.525-17.006h52.4a18.952,18.952,0,0,1,5.907,13.329A16.287,16.287,0,0,1,215.646,105.648Z" transform="translate(-1.363 -14.43)" fill="#4dcf3e"/><rect width="250" height="150" transform="translate(-14.034 -19.995)" fill="none"/></g></svg>