<svg xmlns="http://www.w3.org/2000/svg" width="250" height="150" viewBox="0 0 250 150"><g transform="translate(22.468 17.11)"><path d="M62.7,138.886a32.6,32.6,0,0,1-16.5-60.8l-3.771-8.72a41.692,41.692,0,0,0-21.917,36.529,2.227,2.227,0,0,1-2.357,2.357,2.227,2.227,0,0,1-2.357-2.357A46.682,46.682,0,0,1,40.544,64.886L25.461,30.713H8.257a2.357,2.357,0,0,1,0-4.713H27.346a.866.866,0,0,1,.707.236.231.231,0,0,1,.236.236c.236,0,.236.236.471.236.236.236.236.471.471.471l.236.236h0L45.021,63a47.805,47.805,0,0,1,17.44-3.3,2.357,2.357,0,0,1,0,4.713,43.525,43.525,0,0,0-15.554,3.064l3.771,8.484a34.369,34.369,0,0,1,12.255-2.357A32.839,32.839,0,0,1,95.69,106.364C95.219,124.274,80.607,138.886,62.7,138.886Zm0-60.567A31.042,31.042,0,0,0,52.327,80.2L54.919,86.1a2.338,2.338,0,0,1-1.178,3.064,1.417,1.417,0,0,1-.943.236,2.061,2.061,0,0,1-2.121-1.414l-2.592-5.656A28.176,28.176,0,1,0,62.7,78.319Z" transform="translate(110.938 -26)" fill="#4dcf3e"/><path d="M55.455,51.713h-9.9a2.357,2.357,0,0,1,0-4.713h9.9a2.227,2.227,0,0,1,2.357,2.357A2.362,2.362,0,0,1,55.455,51.713Z" transform="translate(60.911 2.491)" fill="#4dcf3e"/><path d="M57.14,56.713H45.357a2.357,2.357,0,0,1,0-4.713H57.14a2.357,2.357,0,0,1,0,4.713Z" transform="translate(59.697 9.274)" fill="#4dcf3e"/><path d="M38.116,63.637a2.357,2.357,0,1,1,4.713,0v5.42A44.234,44.234,0,0,1,59.09,58.452a8.29,8.29,0,0,1-6.363-8.013c0-4.949,4.713-8.013,8.955-8.013h60.332c1.178-4.949,4.713-9.427,10.37-9.427h30.637c6.6,0,10.841,6.6,10.841,12.491v1.65a11.567,11.567,0,0,1-11.548,11.548H133.326a4.011,4.011,0,0,1-1.65-.236c-.236,0-.471.236-.943.236H118.244v40.3a2.357,2.357,0,1,1-4.713,0c0-20.032-16.968-37.236-37.707-38.179v8.955a29.106,29.106,0,1,1-4.478,0V60.809A38.686,38.686,0,0,0,38.823,83.2a2.321,2.321,0,1,1-4.242-1.885,39.885,39.885,0,0,1,4.006-6.834c-.236-.471-.471-.707-.471-1.178V63.637Zm88.376-16.5a6.839,6.839,0,0,0,6.834,6.834h28.987a6.839,6.839,0,0,0,6.834-6.834v-1.65c0-3.771-2.357-7.777-6.127-7.777H132.384c-3.535,0-5.892,4.006-5.892,7.777v1.65ZM113.53,80.134V58.688H89.256A45.3,45.3,0,0,1,113.53,80.134ZM71.109,77.777v-3.3a24.711,24.711,0,1,0,27.573,24.51,24.469,24.469,0,0,0-22.624-24.51v3.3A2.534,2.534,0,0,1,73.7,80.134h0A2.424,2.424,0,0,1,71.109,77.777Zm53.026-23.8a11.4,11.4,0,0,1-2.357-6.834h-60.1c-2.121,0-4.242,1.414-4.242,3.3a3.471,3.471,0,0,0,3.535,3.535Z" transform="translate(-34.4 -16.503)" fill="#4dcf3e"/><path d="M55.357,47a2.227,2.227,0,0,1,2.357,2.357V61.14a2.357,2.357,0,1,1-4.713,0V49.357A2.227,2.227,0,0,1,55.357,47Z" transform="translate(37.914 2.491)" fill="#4dcf3e"/><path d="M80.338,58.3a2.386,2.386,0,1,1,4.478,1.65l-7.777,22.86H45.694a2.357,2.357,0,0,1,0-4.713H73.739Z" transform="translate(33.436 15.701)" fill="#4dcf3e"/><path d="M61.955,63.127a6.127,6.127,0,1,1-12.255,0,6.127,6.127,0,1,1,12.255,0Zm-7.541,0a1.414,1.414,0,1,0,1.414-1.414A1.521,1.521,0,0,0,54.413,63.127Z" transform="translate(41.449 16.058)" fill="#4dcf3e"/><path d="M27.226,80.052A12.726,12.726,0,1,1,39.952,67.326,12.825,12.825,0,0,1,27.226,80.052Zm0-20.5a8.013,8.013,0,1,0,8.013,8.013A8.1,8.1,0,0,0,27.226,59.549Z" transform="translate(146.408 12.802)" fill="#4dcf3e"/><path d="M96.952,68.326A12.726,12.726,0,1,1,84.226,55.6,12.825,12.825,0,0,1,96.952,68.326Zm-20.5,0a8.013,8.013,0,1,0,8.013-8.013A8.1,8.1,0,0,0,76.449,68.326Z" transform="translate(-44.924 14.158)" fill="#4dcf3e"/><rect width="250" height="150" transform="translate(-22.468 -17.11)" fill="none"/></g></svg>